#!OML:ASF X:\für Bonn\!DataBase\2005_08_11_Bastian_Final\c3d\Bastian.ASF
:FULLY-SPECIFIED
:DEGREES
289
root 2.15385 15.3339 -14.0962 553.14 -189.288 -156.723
lowerback 49.0964 -6.5218 22.3889
upperback 10.9547 5.11268 11.1457
thorax -6.58168 2.28335 0.491713
lowerneck -26.6519 -4.7262 5.71323
upperneck -5.00781 -7.87472 -7.2554
head 1.97652 -4.51476 -3.8705
rclavicle 4.77083e-014 9.78021e-014
rhumerus 29.1616 -6.19841 -45.9778
rradius 26.836
rwrist -40.2551
rhand -29.3578 -6.18101
rfingers 7.12502
rthumb -2.6973 -36.1437
lclavicle 4.77083e-014 9.78021e-014
lhumerus -39.1091 -1.08998 3.36495
lradius 13.0081
lwrist 42.7421
lhand -24.8408 -7.39244
lfingers 7.12502
lthumb 1.66533 22.5808
rfemur -62.773 -26.7727 33.5052
rtibia 67.5286
rfoot -18.2096 -1.23961
rtoes 32.3198
lfemur -15.917 24.0642 -35.7647
ltibia 60.6277
lfoot -25.2572 -19.5068
ltoes -23.275
290
root 2.07281 15.3592 -14.2486 552.943 -190.898 -157.941
lowerback 48.4422 -6.45816 22.4091
upperback 10.9563 5.00219 10.9618
thorax -6.46453 2.26893 0.277955
lowerneck -26.0044 -4.63503 6.35552
upperneck -5.30878 -7.91099 -7.25558
head 1.77467 -4.52436 -3.94128
rclavicle -6.04305e-014 -7.31528e-014
rhumerus 28.0323 -4.19342 -46.2142
rradius 27.3035
rwrist -40.4651
rhand -28.8512 -5.6426
rfingers 7.12502
rthumb -2.20803 -35.6109
lclavicle -6.04305e-014 -7.31528e-014
lhumerus -39.2797 2.04219 1.90834
lradius 12.7806
lwrist 39.7289
lhand -24.2049 -6.52319
lfingers 7.12502
lthumb 2.27948 23.4444
rfemur -63.0516 -27.5292 34.7098
rtibia 67.5194
rfoot -16.9901 1.81248
rtoes 29.7496
lfemur -15.4014 23.6224 -35.2479
ltibia 59.386
lfoot -28.0256 -16.9111
ltoes -19.9204
291
root 1.97302 15.3819 -14.3992 552.708 -192.489 -159.109
lowerback 48.0231 -6.33454 22.2613
upperback 10.8809 4.97694 10.8355
thorax -6.50075 2.26944 0.166141
lowerneck -25.5572 -4.53328 6.95548
upperneck -5.47549 -7.9158 -7.30072
head 1.64172 -4.52386 -4.02818
rclavicle 1.08139e-013 3.97569e-015
rhumerus 26.9957 -2.19792 -46.4954
rradius 27.8588
rwrist -41.0055
rhand -27.985 -5.18374
rfingers 7.12502
rthumb -1.37139 -35.1591
lclavicle 1.08139e-013 3.97569e-015
lhumerus -39.4888 5.35555 0.420965
lradius 12.6069
lwrist 36.5542
lhand -23.7147 -5.7581
lfingers 7.12502
lthumb 2.75286 24.2039
rfemur -63.2063 -28.032 35.6784
rtibia 67.5923
rfoot -15.9332 4.68401
rtoes 26.352
lfemur -15.0254 23.2628 -34.5321
ltibia 58.2678
lfoot -30.8241 -13.7527
ltoes -21.3299
292
root 1.87155 15.4075 -14.5459 552.444 -194.078 -160.209
lowerback 47.6553 -6.24964 22.1176
upperback 10.8015 4.9285 10.7149
thorax -6.54881 2.25807 0.0738317
lowerneck -25.3403 -4.47153 7.36803
upperneck -5.54113 -7.92618 -7.30458
head 1.57676 -4.52565 -4.08413
rclavicle -1.59028e-014 7.15625e-014
rhumerus 26.0701 -0.263454 -46.7668
rradius 28.5009
rwrist -41.6771
rhand -26.934 -4.87207
rfingers 7.12502
rthumb -0.356368 -34.8515
lclavicle -1.59028e-014 7.15625e-014
lhumerus -39.7086 8.338 -0.676346
lradius 12.4431
lwrist 33.6639
lhand -23.3082 -5.10997
lfingers 7.12502
lthumb 3.14548 24.8466
rfemur -63.3054 -28.452 36.431
rtibia 67.7406
rfoot -14.9784 7.34605
rtoes 21.1629
lfemur -14.8229 22.932 -33.7113
ltibia 57.3753
lfoot -33.1742 -10.1976
ltoes -26.1293
293
root 1.77058 15.4353 -14.6882 552.141 -195.638 -161.254
lowerback 47.3789 -6.20619 22.0105
upperback 10.7289 4.87843 10.6076
thorax -6.59788 2.24506 -0.00813494
lowerneck -25.3372 -4.49978 7.40752
upperneck -5.50884 -7.96147 -7.17097
head 1.58532 -4.53093 -4.0504
rclavicle 3.49861e-014 1.01778e-013
rhumerus 25.318 1.48219 -47.0354
rradius 29.1221
rwrist -42.1917
rhand -25.7301 -4.68575
rfingers 7.12502
rthumb 0.806394 -34.664
lclavicle 3.49861e-014 1.01778e-013
lhumerus -39.9543 12.0018 -1.97939
lradius 12.1353
lwrist 29.6653
lhand -22.913 -4.68375
lfingers 7.12502
lthumb 3.52707 25.2668
rfemur -63.3046 -28.7669 36.9426
rtibia 67.9771
rfoot -14.2255 9.7483
rtoes 15.1916
lfemur -14.8416 22.3899 -32.7002
ltibia 56.7207
lfoot -34.4518 -8.18158
ltoes -26.9462
294
root 1.67033 15.4625 -14.8252 551.819 -197.195 -162.16
lowerback 47.1577 -6.19261 21.89
upperback 10.6722 4.80605 10.5167
thorax -6.64261 2.22312 -0.0535867
lowerneck -25.5744 -4.64631 7.02669
upperneck -5.35009 -8.04786 -6.85685
head 1.68113 -4.54979 -3.90958
rclavicle 3.49861e-014 3.97569e-014
rhumerus 24.733 3.12009 -47.2088
rradius 29.6409
rwrist -42.3526
rhand -24.4983 -4.52707
rfingers 7.12502
rthumb 1.99614 -34.4975
lclavicle 3.49861e-014 3.97569e-014
lhumerus -40.3221 14.9984 -2.58775
lradius 12.127
lwrist 26.0568
lhand -22.5804 -4.25417
lfingers 7.12502
lthumb 3.84829 25.6908
rfemur -63.2402 -29.0359 37.1663
rtibia 68.3323
rfoot -13.6429 11.8843
rtoes 9.08701
lfemur -15.0533 21.8003 -31.6029
ltibia 56.3131
lfoot -35.1104 -7.67224
ltoes -24.6206
295
root 1.57017 15.4881 -14.9553 551.418 -198.761 -163.032
lowerback 46.9646 -6.20436 21.7872
upperback 10.6698 4.72019 10.4751
thorax -6.63324 2.20107 -0.0427832
lowerneck -25.9538 -4.87484 6.33466
upperneck -5.16854 -8.16103 -6.41081
head 1.81684 -4.57266 -3.68744
rclavicle 6.99722e-014 5.725e-014
rhumerus 24.3194 4.64695 -47.2869
rradius 30.0876
rwrist -42.1735
rhand -23.4623 -4.38826
rfingers 7.12502
rthumb 2.9966 -34.3469
lclavicle 6.99722e-014 5.725e-014
lhumerus -40.6106 16.8592 -2.09973
lradius 12.389
lwrist 23.4539
lhand -22.3761 -3.77338
lfingers 7.12502
lthumb 4.04564 26.1679
rfemur -63.0042 -29.198 37.1538
rtibia 68.8033
rfoot -13.2861 13.5868
rtoes 4.06625
lfemur -15.3245 21.3824 -30.3668
ltibia 56.1178
lfoot -35.4158 -7.85788
ltoes -22.139
296
root 1.46997 15.5157 -15.078 551.004 -200.312 -163.787
lowerback 46.7178 -6.20854 21.6501
upperback 10.7089 4.60143 10.4106
thorax -6.57225 2.17279 -0.0347357
lowerneck -26.227 -5.16477 5.55683
upperneck -5.08443 -8.32629 -5.88704
head 1.91249 -4.61502 -3.42646
rclavicle -1.27222e-014 -6.99722e-014
rhumerus 23.9484 5.98724 -47.4403
rradius 30.4841
rwrist -41.5079
rhand -22.5592 -4.19142
rfingers 7.12502
rthumb 3.86875 -34.136
lclavicle -1.27222e-014 -6.99722e-014
lhumerus -40.6974 18.685 -1.40199
lradius 12.5662
lwrist 20.4893
lhand -22.1418 -3.41608
lfingers 7.12502
lthumb 4.2718 26.5208
rfemur -62.6374 -29.2287 36.8353
rtibia 69.4087
rfoot -13.1511 14.6494
rtoes 0.254696
lfemur -15.6674 21.1032 -29.1544
ltibia 56.1001
lfoot -35.5384 -8.12316
ltoes -21.3373
297
root 1.3706 15.5486 -15.1925 550.474 -201.839 -164.444
lowerback 46.4802 -6.21205 21.427
upperback 10.795 4.44426 10.3688
thorax -6.47761 2.13196 0.0451964
lowerneck -26.18 -5.5061 4.66437
upperneck -5.19589 -8.52013 -5.27535
head 1.91497 -4.6621 -3.10795
rclavicle -9.85972e-014 -1.19271e-013
rhumerus 23.6313 7.23709 -47.6191
rradius 30.8326
rwrist -40.4631
rhand -21.903 -3.9007
rfingers 7.12502
rthumb 4.5024 -33.8328
lclavicle -9.85972e-014 -1.19271e-013
lhumerus -40.5312 19.9891 -0.215592
lradius 12.6312
lwrist 17.7843
lhand -21.8896 -3.23476
lfingers 7.12502
lthumb 4.51539 26.6971
rfemur -61.998 -29.2495 36.2258
rtibia 70.135
rfoot -13.2304 15.136
rtoes -1.80097
lfemur -15.9024 20.929 -27.9139
ltibia 56.171
lfoot -35.4459 -8.31791
ltoes -22.4566
298
root 1.27289 15.58 -15.2981 549.879 -203.354 -164.898
lowerback 46.1761 -6.17192 21.0144
upperback 10.9865 4.22118 10.3481
thorax -6.28744 2.07435 0.239066
lowerneck -25.9687 -5.82972 3.867
upperneck -5.44374 -8.71826 -4.71853
head 1.85151 -4.71464 -2.8138
rclavicle -2.22639e-014 -3.65764e-014
rhumerus 23.4383 8.35383 -47.8623
rradius 31.073
rwrist -39.1327
rhand -21.5056 -3.40092
rfingers 7.12502
rthumb 4.88619 -33.3246
lclavicle -2.22639e-014 -3.65764e-014
lhumerus -40.0714 20.7761 1.50856
lradius 12.5593
lwrist 15.4642
lhand -21.6871 -3.3204
lfingers 7.12502
lthumb 4.71089 26.6072
rfemur -61.0376 -29.3159 35.2488
rtibia 71.0387
rfoot -13.5315 15.1541
rtoes -1.65943
lfemur -15.9816 20.7426 -26.7807
ltibia 56.2253
lfoot -35.162 -8.57735
ltoes -24.3395
299
root 1.17694 15.6127 -15.396 549.195 -204.864 -165.209
lowerback 45.8286 -6.11011 20.4924
upperback 11.2542 3.95493 10.3277
thorax -6.02005 2.00636 0.48993
lowerneck -25.585 -6.1304 3.2237
upperneck -5.81705 -8.9325 -4.23693
head 1.72049 -4.78076 -2.55942
rclavicle 2.22639e-014 -2.70347e-014
rhumerus 23.2989 9.4223 -48.0864
rradius 31.2478
rwrist -37.7884
rhand -21.4191 -2.70098
rfingers 7.12502
rthumb 4.96969 -32.6227
lclavicle 2.22639e-014 -2.70347e-014
lhumerus -39.7376 22.3508 2.7986
lradius 12.5448
lwrist 12.08
lhand -21.3333 -3.85221
lfingers 7.12502
lthumb 5.05254 26.0676
rfemur -59.8159 -29.3798 33.9992
rtibia 72.0823
rfoot -13.9003 14.6842
rtoes 0.0385189
lfemur -15.8268 20.4317 -25.7211
ltibia 56.1648
lfoot -34.6117 -9.04931
ltoes -25.4884
300
root 1.08366 15.6472 -15.4867 548.501 -206.306 -165.396
lowerback 45.4935 -6.00371 19.8573
upperback 11.5428 3.69557 10.3089
thorax -5.74457 1.93899 0.78545
lowerneck -25.2945 -6.41083 2.63977
upperneck -6.08905 -9.13804 -3.81717
head 1.63064 -4.84722 -2.33896
rclavicle -8.90555e-014 -8.5875e-014
rhumerus 23.2248 10.5714 -48.2298
rradius 31.3741
rwrist -36.6116
rhand -21.6839 -1.90982
rfingers 7.12502
rthumb 4.71403 -31.8374
lclavicle -8.90555e-014 -8.5875e-014
lhumerus -39.7335 25.1672 3.32301
lradius 12.4943
lwrist 7.07574
lhand -20.8515 -4.94237
lfingers 7.12502
lthumb 5.51775 24.9658
rfemur -58.4296 -29.3095 32.5298
rtibia 73.2357
rfoot -14.1799 13.789
rtoes 2.76738
lfemur -15.5167 20.0214 -24.8095
ltibia 55.9521
lfoot -33.8447 -9.60686
ltoes -25.6748
301
root 0.992266 15.6864 -15.5712 547.868 -207.69 -165.489
lowerback 45.1704 -5.90292 19.2656
upperback 11.7967 3.45141 10.2102
thorax -5.49123 1.87538 0.976944
lowerneck -24.7514 -6.6832 2.19271
upperneck -6.77596 -9.3669 -3.26507
head 1.66272 -4.91666 -2.29459
rclavicle -9.54166e-015 3.49861e-014
rhumerus 23.1332 11.7912 -48.3038
rradius 31.5023
rwrist -35.7847
rhand -22.2318 -1.06898
rfingers 7.12502
rthumb 4.18496 -31.0076
lclavicle -9.54166e-015 3.49861e-014
lhumerus -39.3587 27.3893 4.36239
lradius 12.2383
lwrist 2.69648
lhand -20.5663 -6.63889
lfingers 7.12502
lthumb 5.79309 23.2619
rfemur -56.9298 -29.0214 30.92
rtibia 74.4079
rfoot -14.4368 12.2964
rtoes 5.39648
lfemur -15.1577 19.4111 -24.0829
ltibia 55.6017
lfoot -33.005 -10.0351
ltoes -25.556
302
root 0.904224 15.7306 -15.6502 547.385 -208.99 -165.565
lowerback 44.7814 -5.7715 18.7438
upperback 11.9861 3.26271 10.0824
thorax -5.2799 1.82905 1.0875
lowerneck -24.8448 -6.96356 1.7189
upperneck -6.70579 -9.60034 -2.95576
head 1.7293 -5.00627 -2.136
rclavicle 6.36111e-014 1.11319e-013
rhumerus 23.0154 13.078 -48.3285
rradius 31.6556
rwrist -35.2161
rhand -23.0173 -0.38209
rfingers 7.12502
rthumb 3.42641 -30.3343
lclavicle 6.36111e-014 1.11319e-013
lhumerus -38.3592 28.34 6.39925
lradius 11.6234
lwrist -0.330033
lhand -20.5911 -8.9305
lfingers 7.12502
lthumb 5.76913 20.971
rfemur -55.4774 -28.4501 29.3519
rtibia 75.5297
rfoot -14.663 10.2956
rtoes 6.89199
lfemur -14.8988 18.7014 -23.5296
ltibia 55.1466
lfoot -32.2337 -10.0949
ltoes -25.9564
303
root 0.819286 15.7766 -15.7228 547.003 -210.248 -165.644
lowerback 44.3315 -5.64631 18.3152
upperback 12.1315 3.09372 9.90725
thorax -5.08535 1.78908 1.10272
lowerneck -25.0041 -7.2241 1.38046
upperneck -6.54129 -9.84105 -2.70079
head 1.83382 -5.10449 -2.02837
rclavicle 3.18055e-015 4.13472e-014
rhumerus 22.9236 14.2887 -48.4151
rradius 31.7422
rwrist -34.8034
rhand -23.8115 0.11414
rfingers 7.12502
rthumb 2.65944 -29.849
lclavicle 3.18055e-015 4.13472e-014
lhumerus -37.0534 28.6118 8.8878
lradius 10.8054
lwrist -2.72158
lhand -20.8448 -11.5603
lfingers 7.12502
lthumb 5.52419 18.3477
rfemur -54.0575 -27.7029 27.8607
rtibia 76.549
rfoot -14.7987 8.12517
rtoes 8.66815
lfemur -14.6718 18.0053 -23.0774
ltibia 54.6183
lfoot -31.6874 -9.81589
ltoes -27.2431
